<?xml version="1.0" encoding="UTF-8" standalone="no"?>
<!DOCTYPE svg PUBLIC "-//W3C//DTD SVG 1.1//EN" "http://www.w3.org/Graphics/SVG/1.1/DTD/svg11.dtd">
<svg width="400px" height="100px" version="1.1" xmlns="http://www.w3.org/2000/svg" xmlns:xlink="http://www.w3.org/1999/xlink" xml:space="preserve" xmlns:serif="http://www.serif.com/" style="fill-rule:evenodd;clip-rule:evenodd;stroke-linecap:round;stroke-linejoin:round;stroke-miterlimit:1.5;">
    <path d="M57.875,15.939c0,0.08 -0.136,0.327 -0.41,0.74c-0.273,0.413 -0.55,0.787 -0.83,1.12c-0.693,0.84 -1.316,1.487 -1.87,1.94c-0.553,0.453 -1.13,0.68 -1.73,0.68c-0.506,0 -0.923,-0.22 -1.25,-0.66c-0.326,-0.44 -0.49,-0.947 -0.49,-1.52c0,-0.853 0.227,-1.933 0.68,-3.24c0.454,-1.307 1.027,-2.44 1.72,-3.4c0.694,-0.96 1.387,-1.44 2.08,-1.44c0.294,0 0.547,0.107 0.76,0.32c0.12,0.12 0.234,0.28 0.34,0.48c0.107,0.2 0.16,0.38 0.16,0.54c0,0.227 -0.03,0.49 -0.09,0.79c-0.06,0.3 -0.123,0.45 -0.19,0.45c-0.133,0 -0.22,-0.073 -0.26,-0.22c-0.04,-0.147 -0.066,-0.333 -0.08,-0.56c-0.04,-0.347 -0.08,-0.577 -0.12,-0.69c-0.04,-0.113 -0.1,-0.17 -0.18,-0.17c-0.626,0 -1.233,0.437 -1.82,1.31c-0.586,0.873 -1.066,1.887 -1.44,3.04c-0.373,1.153 -0.56,2.043 -0.56,2.67c0,0.88 0.294,1.32 0.88,1.32c0.427,0 0.817,-0.107 1.17,-0.32c0.354,-0.213 0.724,-0.513 1.11,-0.9c0.72,-0.733 1.28,-1.367 1.68,-1.9c0.027,-0.04 0.104,-0.143 0.23,-0.31c0.127,-0.167 0.217,-0.25 0.27,-0.25c0.16,0 0.24,0.06 0.24,0.18Z" style="fill:#fff;fill-rule:nonzero;"/>
    <path d="M66.175,16.199c0,0.52 -0.193,1.12 -0.58,1.8c-0.386,0.68 -0.933,1.263 -1.64,1.75c-0.706,0.487 -1.513,0.73 -2.42,0.73c-0.893,0 -1.553,-0.247 -1.98,-0.74c-0.426,-0.493 -0.64,-1.107 -0.64,-1.84c0,-0.64 0.117,-1.433 0.35,-2.38c0.234,-0.947 0.564,-1.793 0.99,-2.54c0.027,-0.053 0.137,-0.25 0.33,-0.59c0.194,-0.34 0.41,-0.6 0.65,-0.78c0.24,-0.18 0.494,-0.27 0.76,-0.27c0.12,0 0.23,0.03 0.33,0.09c0.1,0.06 0.15,0.137 0.15,0.23c0,0.027 -0.036,0.09 -0.11,0.19c-0.073,0.1 -0.13,0.177 -0.17,0.23c-0.453,0.547 -0.82,1.087 -1.1,1.62c-0.373,0.68 -0.663,1.353 -0.87,2.02c-0.206,0.667 -0.31,1.393 -0.31,2.18c0,1.053 0.64,1.58 1.92,1.58c0.6,0 1.157,-0.173 1.67,-0.52c0.514,-0.347 0.924,-0.77 1.23,-1.27c0.307,-0.5 0.46,-0.957 0.46,-1.37c0,-0.467 -0.153,-0.873 -0.46,-1.22c-0.306,-0.347 -0.726,-0.713 -1.26,-1.1c-0.346,-0.253 -0.6,-0.46 -0.76,-0.62c-0.16,-0.16 -0.24,-0.293 -0.24,-0.4c0,-0.16 0.114,-0.29 0.34,-0.39c0.227,-0.1 0.494,-0.15 0.8,-0.15c0.174,0 0.287,0.01 0.34,0.03c0.054,0.02 0.08,0.057 0.08,0.11c0,0.027 -0.023,0.07 -0.07,0.13c-0.046,0.06 -0.07,0.11 -0.07,0.15c0,0.04 0.134,0.173 0.4,0.4c0.534,0.44 0.98,0.887 1.34,1.34c0.36,0.453 0.54,0.987 0.54,1.6Z" style="fill:#fff;fill-rule:nonzero;"/>
    <path d="M76.655,15.539c0,0.947 -0.613,1.68 -1.84,2.2c-1.226,0.52 -2.826,0.853 -4.8,1c-0.026,0.907 -0.04,1.647 -0.04,2.22c0,0.76 0.034,1.453 0.1,2.08c0.027,0.24 0.04,0.407 0.04,0.5c0,0.213 -0.046,0.397 -0.14,0.55c-0.093,0.153 -0.226,0.23 -0.4,0.23c-0.24,0 -0.373,-0.087 -0.4,-0.26c-0.013,-0.227 -0.03,-0.577 -0.05,-1.05c-0.02,-0.473 -0.03,-0.95 -0.03,-1.43l0.02,-2.8c-0.066,0 -0.19,0.007 -0.37,0.02c-0.18,0.013 -0.356,0.02 -0.53,0.02c-0.32,0 -0.48,-0.22 -0.48,-0.66c0,-0.32 0.08,-0.48 0.24,-0.48c0.054,0 0.214,0.04 0.48,0.12c0.267,0.08 0.494,0.12 0.68,0.12l-0.02,-5.66c-0.106,-0.013 -0.326,-0.037 -0.66,-0.07c-0.333,-0.033 -0.576,-0.097 -0.73,-0.19c-0.153,-0.093 -0.23,-0.227 -0.23,-0.4c0,-0.347 0.067,-0.52 0.2,-0.52c0.147,0 0.327,0.053 0.54,0.16c0.027,0.013 0.107,0.05 0.24,0.11c0.134,0.06 0.32,0.103 0.56,0.13c0.08,-0.213 0.157,-0.36 0.23,-0.44c0.074,-0.08 0.217,-0.12 0.43,-0.12c0.267,0 0.4,0.053 0.4,0.16c0,0.04 -0.02,0.11 -0.06,0.21c-0.04,0.1 -0.06,0.197 -0.06,0.29c0.827,0.12 1.764,0.363 2.81,0.73c1.047,0.367 1.954,0.83 2.72,1.39c0.767,0.56 1.15,1.173 1.15,1.84Zm-0.86,0.08c0,-0.56 -0.32,-1.067 -0.96,-1.52c-0.64,-0.453 -1.41,-0.827 -2.31,-1.12c-0.9,-0.293 -1.763,-0.507 -2.59,-0.64c0.027,0.773 0.047,1.797 0.06,3.07c0.014,1.273 0.02,2.117 0.02,2.53c0.8,0 1.654,-0.103 2.56,-0.31c0.907,-0.207 1.67,-0.487 2.29,-0.84c0.62,-0.353 0.93,-0.743 0.93,-1.17Z" style="fill:#fff;fill-rule:nonzero;"/>
    <path d="M84.835,11.499c0,0.307 -0.073,0.973 -0.22,2c-0.16,1.173 -0.246,1.833 -0.26,1.98c-0.173,1.64 -0.296,2.89 -0.37,3.75c-0.073,0.86 -0.11,1.637 -0.11,2.33c0,0.573 0.044,1.027 0.13,1.36c0.087,0.333 0.18,0.597 0.28,0.79c0.1,0.193 0.15,0.31 0.15,0.35c0,0.12 -0.106,0.227 -0.32,0.32c-0.213,0.093 -0.433,0.14 -0.66,0.14c-0.173,0 -0.31,-0.233 -0.41,-0.7c-0.1,-0.467 -0.15,-1.193 -0.15,-2.18c0,-0.747 0.074,-1.753 0.22,-3.02l0.3,-2.76c-0.36,0.693 -0.803,1.357 -1.33,1.99c-0.526,0.633 -1.07,0.95 -1.63,0.95c-0.52,0 -0.986,-0.453 -1.4,-1.36c-0.413,-0.907 -0.736,-1.933 -0.97,-3.08c-0.233,-1.147 -0.35,-1.987 -0.35,-2.52c0,-0.333 0.1,-0.5 0.3,-0.5c0.294,0 0.48,0.273 0.56,0.82c0.507,3.707 1.214,5.56 2.12,5.56c0.36,0 0.677,-0.143 0.95,-0.43c0.274,-0.287 0.597,-0.73 0.97,-1.33c0.174,-0.28 0.36,-0.653 0.56,-1.12c0.2,-0.467 0.354,-0.853 0.46,-1.16l0.14,-2.02c0.027,-0.307 0.067,-0.523 0.12,-0.65c0.054,-0.127 0.16,-0.19 0.32,-0.19c0.134,0 0.267,0.077 0.4,0.23c0.134,0.153 0.2,0.303 0.2,0.45Z" style="fill:#fff;fill-rule:nonzero;"/>
    <path d="M100.735,19.059c0.014,0.093 0.067,0.19 0.16,0.29c0.094,0.1 0.14,0.183 0.14,0.25c0,0.16 -0.066,0.343 -0.2,0.55c-0.133,0.207 -0.266,0.31 -0.4,0.31c-0.226,0 -0.4,-0.14 -0.52,-0.42c-0.12,-0.28 -0.18,-0.607 -0.18,-0.98c0,-0.32 0.02,-1.28 0.06,-2.88l0.02,-0.76c0,-0.307 -0.08,-0.527 -0.24,-0.66c-0.6,1.013 -1.16,1.893 -1.68,2.64c-0.52,0.747 -1.18,1.45 -1.98,2.11c-0.8,0.66 -1.64,0.99 -2.52,0.99c-0.426,0 -0.756,-0.133 -0.99,-0.4c-0.233,-0.267 -0.35,-0.613 -0.35,-1.04c0,-0.533 0.24,-1.263 0.72,-2.19c0.48,-0.927 1.094,-1.867 1.84,-2.82c0.747,-0.953 1.494,-1.737 2.24,-2.35c0.494,-0.4 0.887,-0.67 1.18,-0.81c0.294,-0.14 0.554,-0.21 0.78,-0.21c0.214,0 0.434,0.067 0.66,0.2c0.227,0.133 0.42,0.32 0.58,0.56c0.16,0.24 0.24,0.513 0.24,0.82c0,0.413 -0.113,0.807 -0.34,1.18l0.34,-0.1c0.147,0 0.234,0.18 0.26,0.54c0.014,0.213 0.03,0.647 0.05,1.3c0.02,0.653 0.037,1.193 0.05,1.62c0.014,0.44 0.027,0.867 0.04,1.28c0.014,0.413 0.027,0.74 0.04,0.98Zm-7.06,0.36c0.72,0 1.414,-0.267 2.08,-0.8c0.667,-0.533 1.264,-1.17 1.79,-1.91c0.527,-0.74 1.11,-1.65 1.75,-2.73c0.16,-0.4 0.24,-0.833 0.24,-1.3c0,-0.28 -0.083,-0.523 -0.25,-0.73c-0.166,-0.207 -0.39,-0.31 -0.67,-0.31c-0.333,0 -0.76,0.227 -1.28,0.68c-0.6,0.507 -1.233,1.183 -1.9,2.03c-0.666,0.847 -1.22,1.683 -1.66,2.51c-0.44,0.827 -0.66,1.48 -0.66,1.96c0,0.4 0.187,0.6 0.56,0.6Z" style="fill:#fff;fill-rule:nonzero;"/>
    <path d="M109.895,20.479c0,0.16 -0.066,0.297 -0.2,0.41c-0.133,0.113 -0.293,0.17 -0.48,0.17c-0.133,0 -0.246,-0.03 -0.34,-0.09c-0.093,-0.06 -0.14,-0.143 -0.14,-0.25c0,-0.547 0.04,-1.393 0.12,-2.54c0.08,-1.227 0.12,-2.247 0.12,-3.06c0,-0.787 -0.023,-1.43 -0.07,-1.93c-0.046,-0.5 -0.156,-0.75 -0.33,-0.75c-0.453,0 -0.95,0.563 -1.49,1.69c-0.54,1.127 -1.156,2.61 -1.85,4.45l-0.3,0.8c-0.053,0.133 -0.143,0.24 -0.27,0.32c-0.126,0.08 -0.256,0.12 -0.39,0.12c-0.16,0 -0.266,-0.013 -0.32,-0.04c-0.053,-0.027 -0.086,-0.107 -0.1,-0.24l-0.16,-1.64l-0.3,-2.88c-0.093,-1.147 -0.206,-2.147 -0.34,-3c-0.04,-0.2 -0.06,-0.353 -0.06,-0.46c0,-0.2 0.087,-0.363 0.26,-0.49c0.174,-0.127 0.374,-0.19 0.6,-0.19c0.134,0 0.23,0.32 0.29,0.96c0.06,0.64 0.124,1.673 0.19,3.1l0.08,1.06c0.107,1.347 0.167,2.2 0.18,2.56c0.04,-0.08 0.077,-0.17 0.11,-0.27c0.034,-0.1 0.077,-0.21 0.13,-0.33c0.72,-1.867 1.397,-3.423 2.03,-4.67c0.634,-1.247 1.244,-1.87 1.83,-1.87c0.414,0 0.697,0.35 0.85,1.05c0.154,0.7 0.25,1.597 0.29,2.69c0.04,1.213 0.06,2.987 0.06,5.32Z" style="fill:#fff;fill-rule:nonzero;"/>
    <path d="M119.395,6.659c0,0.267 -0.013,0.79 -0.04,1.57c-0.026,0.78 -0.04,1.563 -0.04,2.35c0,1.52 0.034,3.07 0.1,4.65c0.067,1.58 0.12,2.617 0.16,3.11c0,0.08 0.007,0.167 0.02,0.26c0.014,0.093 0.027,0.18 0.04,0.26c0.054,0.373 0.08,0.6 0.08,0.68c0,0.133 -0.096,0.26 -0.29,0.38c-0.193,0.12 -0.343,0.18 -0.45,0.18c-0.146,0 -0.243,-0.057 -0.29,-0.17c-0.046,-0.113 -0.07,-0.27 -0.07,-0.47c0,-0.733 0.02,-1.5 0.06,-2.3l0.02,-1.12c0,-0.373 -0.006,-0.863 -0.02,-1.47c-0.013,-0.607 -0.033,-1.117 -0.06,-1.53c-0.68,2.187 -1.45,3.997 -2.31,5.43c-0.86,1.433 -1.79,2.15 -2.79,2.15c-0.453,0 -0.836,-0.213 -1.15,-0.64c-0.313,-0.427 -0.47,-1.04 -0.47,-1.84c0,-1.053 0.357,-2.2 1.07,-3.44c0.714,-1.24 1.527,-2.307 2.44,-3.2c0.914,-0.893 1.59,-1.34 2.03,-1.34c0.427,0 0.64,0.14 0.64,0.42c0,0.187 -0.063,0.403 -0.19,0.65c-0.126,0.247 -0.266,0.47 -0.42,0.67c-0.153,0.2 -0.243,0.3 -0.27,0.3c-0.026,0 -0.056,-0.01 -0.09,-0.03c-0.033,-0.02 -0.05,-0.043 -0.05,-0.07c0,-0.067 0.034,-0.18 0.1,-0.34c0.067,-0.16 0.1,-0.267 0.1,-0.32c0,-0.067 -0.006,-0.113 -0.02,-0.14c-0.013,-0.027 -0.053,-0.04 -0.12,-0.04c-0.28,0 -0.783,0.383 -1.51,1.15c-0.726,0.767 -1.376,1.677 -1.95,2.73c-0.573,1.053 -0.86,2.033 -0.86,2.94c0,0.32 0.067,0.62 0.2,0.9c0.134,0.28 0.354,0.42 0.66,0.42c0.974,0 1.877,-0.823 2.71,-2.47c0.834,-1.647 1.557,-3.517 2.17,-5.61l-0.04,-1.68c-0.04,-1.48 -0.06,-2.267 -0.06,-2.36c0,-0.8 0.034,-1.373 0.1,-1.72c0.027,-0.133 0.057,-0.227 0.09,-0.28c0.034,-0.053 0.104,-0.08 0.21,-0.08c0.134,0 0.267,0.043 0.4,0.13c0.134,0.087 0.2,0.203 0.2,0.35l-0.04,0.98Z" style="fill:#fff;fill-rule:nonzero;"/>
    <path d="M136.335,15.539c0,0.947 -0.613,1.68 -1.84,2.2c-1.226,0.52 -2.826,0.853 -4.8,1c-0.026,0.907 -0.04,1.647 -0.04,2.22c0,0.76 0.034,1.453 0.1,2.08c0.027,0.24 0.04,0.407 0.04,0.5c0,0.213 -0.046,0.397 -0.14,0.55c-0.093,0.153 -0.226,0.23 -0.4,0.23c-0.24,0 -0.373,-0.087 -0.4,-0.26c-0.013,-0.227 -0.03,-0.577 -0.05,-1.05c-0.02,-0.473 -0.03,-0.95 -0.03,-1.43l0.02,-2.8c-0.066,0 -0.19,0.007 -0.37,0.02c-0.18,0.013 -0.356,0.02 -0.53,0.02c-0.32,0 -0.48,-0.22 -0.48,-0.66c0,-0.32 0.08,-0.48 0.24,-0.48c0.054,0 0.214,0.04 0.48,0.12c0.267,0.08 0.494,0.12 0.68,0.12l-0.02,-5.66c-0.106,-0.013 -0.326,-0.037 -0.66,-0.07c-0.333,-0.033 -0.576,-0.097 -0.73,-0.19c-0.153,-0.093 -0.23,-0.227 -0.23,-0.4c0,-0.347 0.067,-0.52 0.2,-0.52c0.147,0 0.327,0.053 0.54,0.16c0.027,0.013 0.107,0.05 0.24,0.11c0.134,0.06 0.32,0.103 0.56,0.13c0.08,-0.213 0.157,-0.36 0.23,-0.44c0.074,-0.08 0.217,-0.12 0.43,-0.12c0.267,0 0.4,0.053 0.4,0.16c0,0.04 -0.02,0.11 -0.06,0.21c-0.04,0.1 -0.06,0.197 -0.06,0.29c0.827,0.12 1.764,0.363 2.81,0.73c1.047,0.367 1.954,0.83 2.72,1.39c0.767,0.56 1.15,1.173 1.15,1.84Zm-0.86,0.08c0,-0.56 -0.32,-1.067 -0.96,-1.52c-0.64,-0.453 -1.41,-0.827 -2.31,-1.12c-0.9,-0.293 -1.763,-0.507 -2.59,-0.64c0.027,0.773 0.047,1.797 0.06,3.07c0.014,1.273 0.02,2.117 0.02,2.53c0.8,0 1.654,-0.103 2.56,-0.31c0.907,-0.207 1.67,-0.487 2.29,-0.84c0.62,-0.353 0.93,-0.743 0.93,-1.17Z" style="fill:#fff;fill-rule:nonzero;"/>
    <path d="M146.175,19.059c0.014,0.093 0.067,0.19 0.16,0.29c0.094,0.1 0.14,0.183 0.14,0.25c0,0.16 -0.066,0.343 -0.2,0.55c-0.133,0.207 -0.266,0.31 -0.4,0.31c-0.226,0 -0.4,-0.14 -0.52,-0.42c-0.12,-0.28 -0.18,-0.607 -0.18,-0.98c0,-0.32 0.02,-1.28 0.06,-2.88l0.02,-0.76c0,-0.307 -0.08,-0.527 -0.24,-0.66c-0.6,1.013 -1.16,1.893 -1.68,2.64c-0.52,0.747 -1.18,1.45 -1.98,2.11c-0.8,0.66 -1.64,0.99 -2.52,0.99c-0.426,0 -0.756,-0.133 -0.99,-0.4c-0.233,-0.267 -0.35,-0.613 -0.35,-1.04c0,-0.533 0.24,-1.263 0.72,-2.19c0.48,-0.927 1.094,-1.867 1.84,-2.82c0.747,-0.953 1.494,-1.737 2.24,-2.35c0.494,-0.4 0.887,-0.67 1.18,-0.81c0.294,-0.14 0.554,-0.21 0.78,-0.21c0.214,0 0.434,0.067 0.66,0.2c0.227,0.133 0.42,0.32 0.58,0.56c0.16,0.24 0.24,0.513 0.24,0.82c0,0.413 -0.113,0.807 -0.34,1.18l0.34,-0.1c0.147,0 0.234,0.18 0.26,0.54c0.014,0.213 0.03,0.647 0.05,1.3c0.02,0.653 0.037,1.193 0.05,1.62c0.014,0.44 0.027,0.867 0.04,1.28c0.014,0.413 0.027,0.74 0.04,0.98Zm-7.06,0.36c0.72,0 1.414,-0.267 2.08,-0.8c0.667,-0.533 1.264,-1.17 1.79,-1.91c0.527,-0.74 1.11,-1.65 1.75,-2.73c0.16,-0.4 0.24,-0.833 0.24,-1.3c0,-0.28 -0.083,-0.523 -0.25,-0.73c-0.166,-0.207 -0.39,-0.31 -0.67,-0.31c-0.333,0 -0.76,0.227 -1.28,0.68c-0.6,0.507 -1.233,1.183 -1.9,2.03c-0.666,0.847 -1.22,1.683 -1.66,2.51c-0.44,0.827 -0.66,1.48 -0.66,1.96c0,0.4 0.187,0.6 0.56,0.6Z" style="fill:#fff;fill-rule:nonzero;"/>
    <path d="M155.675,17.539c0,0.587 -0.236,1.15 -0.71,1.69c-0.473,0.54 -1.096,0.973 -1.87,1.3c-0.773,0.327 -1.58,0.49 -2.42,0.49c-0.573,0 -0.96,-0.053 -1.16,-0.16c-0.2,-0.107 -0.3,-0.253 -0.3,-0.44c0,-0.12 0.154,-0.33 0.46,-0.63c0.307,-0.3 0.514,-0.45 0.62,-0.45c0.16,0 0.24,0.033 0.24,0.1c0,0.053 -0.033,0.107 -0.1,0.16c-0.066,0.053 -0.1,0.1 -0.1,0.14c0,0.053 0.084,0.107 0.25,0.16c0.167,0.053 0.37,0.08 0.61,0.08c0.56,0 1.124,-0.103 1.69,-0.31c0.567,-0.207 1.03,-0.477 1.39,-0.81c0.36,-0.333 0.54,-0.687 0.54,-1.06c0,-0.36 -0.113,-0.647 -0.34,-0.86c-0.226,-0.213 -0.51,-0.37 -0.85,-0.47c-0.34,-0.1 -0.91,-0.243 -1.71,-0.43c-0.88,-0.2 -1.563,-0.377 -2.05,-0.53c-0.486,-0.153 -0.876,-0.347 -1.17,-0.58c-0.293,-0.233 -0.44,-0.53 -0.44,-0.89c0,-0.64 0.314,-1.227 0.94,-1.76c0.627,-0.533 1.347,-0.953 2.16,-1.26c0.814,-0.307 1.44,-0.46 1.88,-0.46c0.454,0 0.68,0.133 0.68,0.4c0,0.16 -0.053,0.337 -0.16,0.53c-0.106,0.193 -0.266,0.29 -0.48,0.29c-0.08,0 -0.166,-0.03 -0.26,-0.09c-0.093,-0.06 -0.186,-0.09 -0.28,-0.09c-0.266,0 -0.686,0.087 -1.26,0.26c-0.573,0.173 -1.093,0.433 -1.56,0.78c-0.466,0.347 -0.7,0.767 -0.7,1.26c0,0.32 0.184,0.557 0.55,0.71c0.367,0.153 1.05,0.343 2.05,0.57c0.12,0.04 0.24,0.07 0.36,0.09c0.12,0.02 0.227,0.043 0.32,0.07c1.027,0.24 1.814,0.513 2.36,0.82c0.547,0.307 0.82,0.767 0.82,1.38Z" style="fill:#fff;fill-rule:nonzero;"/>
    <path d="M166.235,12.059c0,0.227 -0.096,0.4 -0.29,0.52c-0.193,0.12 -0.543,0.213 -1.05,0.28c-1.226,0.213 -1.913,0.333 -2.06,0.36l-1.3,0.22c0,0.693 0.01,1.42 0.03,2.18c0.02,0.76 0.05,1.427 0.09,2c0.054,0.773 0.147,1.367 0.28,1.78c0.134,0.413 0.207,0.647 0.22,0.7c0,0.133 -0.083,0.257 -0.25,0.37c-0.166,0.113 -0.323,0.17 -0.47,0.17c-0.08,0 -0.146,-0.023 -0.2,-0.07c-0.053,-0.047 -0.1,-0.123 -0.14,-0.23c-0.08,-0.187 -0.156,-0.533 -0.23,-1.04c-0.073,-0.507 -0.13,-1.067 -0.17,-1.68c-0.04,-0.547 -0.07,-1.183 -0.09,-1.91c-0.02,-0.727 -0.03,-1.43 -0.03,-2.11c-0.746,0.12 -1.513,0.267 -2.3,0.44c-0.706,0.147 -1.126,0.22 -1.26,0.22c-0.16,0 -0.31,-0.047 -0.45,-0.14c-0.14,-0.093 -0.21,-0.22 -0.21,-0.38c0,-0.173 0.06,-0.287 0.18,-0.34c0.12,-0.053 0.32,-0.08 0.6,-0.08c0.2,0 0.494,-0.037 0.88,-0.11c0.387,-0.073 0.634,-0.123 0.74,-0.15c0.894,-0.173 1.5,-0.287 1.82,-0.34c0,-0.28 -0.013,-0.647 -0.04,-1.1c-0.026,-0.613 -0.04,-1.08 -0.04,-1.4c0,-0.52 0.017,-0.923 0.05,-1.21c0.034,-0.287 0.097,-0.543 0.19,-0.77c0.107,-0.267 0.307,-0.4 0.6,-0.4c0.12,0 0.2,0.02 0.24,0.06c0.04,0.04 0.06,0.113 0.06,0.22c0,0.08 -0.033,0.313 -0.1,0.7c-0.066,0.387 -0.1,0.9 -0.1,1.54c0,0.493 0.014,1.047 0.04,1.66l0.02,0.54c0.6,-0.093 1.787,-0.34 3.56,-0.74c0.107,-0.027 0.197,-0.12 0.27,-0.28c0.074,-0.16 0.15,-0.24 0.23,-0.24c0.147,0 0.297,0.083 0.45,0.25c0.154,0.167 0.23,0.337 0.23,0.51Z" style="fill:#fff;fill-rule:nonzero;"/>
    <path d="M174.815,15.239c0.094,0 0.14,0.1 0.14,0.3c0,0.24 -0.176,0.767 -0.53,1.58c-0.353,0.813 -0.886,1.567 -1.6,2.26c-0.713,0.693 -1.59,1.04 -2.63,1.04c-0.853,0 -1.566,-0.267 -2.14,-0.8c-0.573,-0.533 -0.86,-1.353 -0.86,-2.46c0,-1.04 0.24,-2.07 0.72,-3.09c0.48,-1.02 1.107,-1.853 1.88,-2.5c0.774,-0.647 1.574,-0.97 2.4,-0.97c0.494,0 0.91,0.11 1.25,0.33c0.34,0.22 0.51,0.537 0.51,0.95c0,0.467 -0.263,0.92 -0.79,1.36c-0.526,0.44 -1.21,0.827 -2.05,1.16c-0.84,0.333 -1.706,0.573 -2.6,0.72c-0.16,0.613 -0.24,1.213 -0.24,1.8c0,0.773 0.184,1.373 0.55,1.8c0.367,0.427 0.89,0.64 1.57,0.64c1.027,0 1.86,-0.367 2.5,-1.1c0.64,-0.733 1.174,-1.56 1.6,-2.48c0.027,-0.053 0.074,-0.157 0.14,-0.31c0.067,-0.153 0.127,-0.23 0.18,-0.23Zm-1.76,-3.14c0,-0.213 -0.11,-0.38 -0.33,-0.5c-0.22,-0.12 -0.476,-0.18 -0.77,-0.18c-0.506,0 -0.993,0.167 -1.46,0.5c-0.466,0.333 -0.856,0.733 -1.17,1.2c-0.313,0.467 -0.516,0.88 -0.61,1.24c0.614,-0.067 1.26,-0.24 1.94,-0.52c0.68,-0.28 1.25,-0.587 1.71,-0.92c0.46,-0.333 0.69,-0.607 0.69,-0.82Z" style="fill:#fff;fill-rule:nonzero;"/>
    <path d="M188.895,11.499c0,0.307 -0.073,0.973 -0.22,2c-0.16,1.173 -0.246,1.833 -0.26,1.98c-0.173,1.64 -0.296,2.89 -0.37,3.75c-0.073,0.86 -0.11,1.637 -0.11,2.33c0,0.573 0.044,1.027 0.13,1.36c0.087,0.333 0.18,0.597 0.28,0.79c0.1,0.193 0.15,0.31 0.15,0.35c0,0.12 -0.106,0.227 -0.32,0.32c-0.213,0.093 -0.433,0.14 -0.66,0.14c-0.173,0 -0.31,-0.233 -0.41,-0.7c-0.1,-0.467 -0.15,-1.193 -0.15,-2.18c0,-0.747 0.074,-1.753 0.22,-3.02l0.3,-2.76c-0.36,0.693 -0.803,1.357 -1.33,1.99c-0.526,0.633 -1.07,0.95 -1.63,0.95c-0.52,0 -0.986,-0.453 -1.4,-1.36c-0.413,-0.907 -0.736,-1.933 -0.97,-3.08c-0.233,-1.147 -0.35,-1.987 -0.35,-2.52c0,-0.333 0.1,-0.5 0.3,-0.5c0.294,0 0.48,0.273 0.56,0.82c0.507,3.707 1.214,5.56 2.12,5.56c0.36,0 0.677,-0.143 0.95,-0.43c0.274,-0.287 0.597,-0.73 0.97,-1.33c0.174,-0.28 0.36,-0.653 0.56,-1.12c0.2,-0.467 0.354,-0.853 0.46,-1.16l0.14,-2.02c0.027,-0.307 0.067,-0.523 0.12,-0.65c0.054,-0.127 0.16,-0.19 0.32,-0.19c0.134,0 0.267,0.077 0.4,0.23c0.134,0.153 0.2,0.303 0.2,0.45Z" style="fill:#fff;fill-rule:nonzero;"/>
    <path d="M197.715,16.199c0,0.52 -0.193,1.12 -0.58,1.8c-0.386,0.68 -0.933,1.263 -1.64,1.75c-0.706,0.487 -1.513,0.73 -2.42,0.73c-0.893,0 -1.553,-0.247 -1.98,-0.74c-0.426,-0.493 -0.64,-1.107 -0.64,-1.84c0,-0.64 0.117,-1.433 0.35,-2.38c0.234,-0.947 0.564,-1.793 0.99,-2.54c0.027,-0.053 0.137,-0.25 0.33,-0.59c0.194,-0.34 0.41,-0.6 0.65,-0.78c0.24,-0.18 0.494,-0.27 0.76,-0.27c0.12,0 0.23,0.03 0.33,0.09c0.1,0.06 0.15,0.137 0.15,0.23c0,0.027 -0.036,0.09 -0.11,0.19c-0.073,0.1 -0.13,0.177 -0.17,0.23c-0.453,0.547 -0.82,1.087 -1.1,1.62c-0.373,0.68 -0.663,1.353 -0.87,2.02c-0.206,0.667 -0.31,1.393 -0.31,2.18c0,1.053 0.64,1.58 1.92,1.58c0.6,0 1.157,-0.173 1.67,-0.52c0.514,-0.347 0.924,-0.77 1.23,-1.27c0.307,-0.5 0.46,-0.957 0.46,-1.37c0,-0.467 -0.153,-0.873 -0.46,-1.22c-0.306,-0.347 -0.726,-0.713 -1.26,-1.1c-0.346,-0.253 -0.6,-0.46 -0.76,-0.62c-0.16,-0.16 -0.24,-0.293 -0.24,-0.4c0,-0.16 0.114,-0.29 0.34,-0.39c0.227,-0.1 0.494,-0.15 0.8,-0.15c0.174,0 0.287,0.01 0.34,0.03c0.054,0.02 0.08,0.057 0.08,0.11c0,0.027 -0.023,0.07 -0.07,0.13c-0.046,0.06 -0.07,0.11 -0.07,0.15c0,0.04 0.134,0.173 0.4,0.4c0.534,0.44 0.98,0.887 1.34,1.34c0.36,0.453 0.54,0.987 0.54,1.6Z" style="fill:#fff;fill-rule:nonzero;"/>
    <path d="M207.675,19.999c0,0.213 -0.06,0.38 -0.18,0.5c-0.12,0.12 -0.286,0.18 -0.5,0.18c-0.266,0 -0.51,-0.28 -0.73,-0.84c-0.22,-0.56 -0.356,-1.14 -0.41,-1.74c-0.053,-0.573 -0.093,-1.733 -0.12,-3.48c-0.013,-0.28 -0.02,-0.563 -0.02,-0.85c0,-0.287 -0.006,-0.53 -0.02,-0.73c-0.386,0.92 -0.913,1.967 -1.58,3.14c-0.666,1.173 -1.336,2.18 -2.01,3.02c-0.673,0.84 -1.223,1.26 -1.65,1.26c-0.44,0 -0.73,-0.233 -0.87,-0.7c-0.14,-0.467 -0.21,-1.207 -0.21,-2.22c0,-0.947 0.124,-2.02 0.37,-3.22c0.247,-1.2 0.53,-2.113 0.85,-2.74c0.134,-0.28 0.247,-0.47 0.34,-0.57c0.094,-0.1 0.2,-0.15 0.32,-0.15c0.334,0 0.5,0.067 0.5,0.2c0,0.067 -0.066,0.22 -0.2,0.46c-0.36,0.667 -0.673,1.467 -0.94,2.4c-0.266,0.933 -0.4,2.187 -0.4,3.76c0,1.053 0.147,1.58 0.44,1.58c0.347,0 0.817,-0.383 1.41,-1.15c0.594,-0.767 1.184,-1.683 1.77,-2.75c0.587,-1.067 1.034,-1.993 1.34,-2.78c0.107,-0.267 0.227,-0.68 0.36,-1.24c0.04,-0.227 0.08,-0.39 0.12,-0.49c0.04,-0.1 0.087,-0.15 0.14,-0.15c0.147,0 0.307,0.06 0.48,0.18c0.174,0.12 0.26,0.247 0.26,0.38c0,0.64 0.024,1.737 0.07,3.29c0.047,1.553 0.104,2.63 0.17,3.23c0.054,0.52 0.15,0.927 0.29,1.22c0.14,0.293 0.277,0.523 0.41,0.69c0.134,0.167 0.2,0.27 0.2,0.31Z" style="fill:#fff;fill-rule:nonzero;"/>
    <path d="M216.175,11.919c0,0.12 -0.083,0.257 -0.25,0.41c-0.166,0.153 -0.31,0.23 -0.43,0.23c-0.093,0 -0.183,-0.04 -0.27,-0.12c-0.086,-0.08 -0.183,-0.193 -0.29,-0.34c-0.093,-0.133 -0.216,-0.247 -0.37,-0.34c-0.153,-0.093 -0.31,-0.14 -0.47,-0.14c-0.386,0 -0.906,0.51 -1.56,1.53c-0.653,1.02 -1.293,2.303 -1.92,3.85c0.014,0.307 0.037,0.693 0.07,1.16c0.034,0.467 0.057,0.813 0.07,1.04l0.06,0.8c0,0.187 -0.04,0.35 -0.12,0.49c-0.08,0.14 -0.226,0.21 -0.44,0.21c-0.226,0 -0.373,-0.303 -0.44,-0.91c-0.066,-0.607 -0.106,-1.49 -0.12,-2.65c-0.013,-0.293 -0.023,-0.713 -0.03,-1.26c-0.006,-0.547 -0.023,-1.2 -0.05,-1.96c-0.04,-1.147 -0.06,-1.967 -0.06,-2.46c0,-0.307 0.187,-0.46 0.56,-0.46c0.227,0 0.364,0.097 0.41,0.29c0.047,0.193 0.07,0.563 0.07,1.11l0,3.18c0.4,-1.027 0.834,-1.913 1.3,-2.66c0.467,-0.747 0.924,-1.317 1.37,-1.71c0.447,-0.393 0.844,-0.59 1.19,-0.59c0.294,0 0.574,0.067 0.84,0.2c0.267,0.133 0.48,0.303 0.64,0.51c0.16,0.207 0.24,0.403 0.24,0.59Z" style="fill:#fff;fill-rule:nonzero;"/>
    <path d="M235.235,14.139c0,0.64 -0.233,1.283 -0.7,1.93c-0.466,0.647 -1.106,1.377 -1.92,2.19c-0.6,0.6 -1.306,1.187 -2.12,1.76c-0.533,0.373 -1.056,0.693 -1.57,0.96c-0.513,0.267 -0.903,0.4 -1.17,0.4c-0.133,0 -0.25,-0.037 -0.35,-0.11c-0.1,-0.073 -0.15,-0.183 -0.15,-0.33c0,-0.213 0.08,-0.397 0.24,-0.55c0.16,-0.153 0.374,-0.277 0.64,-0.37c0.134,-0.053 0.32,-0.107 0.56,-0.16c0.307,-0.053 0.58,-0.14 0.82,-0.26c0.454,-0.227 0.984,-0.577 1.59,-1.05c0.607,-0.473 1.084,-0.897 1.43,-1.27c0.574,-0.613 1.01,-1.157 1.31,-1.63c0.3,-0.473 0.45,-0.963 0.45,-1.47c0,-0.28 -0.133,-0.483 -0.4,-0.61c-0.266,-0.127 -0.593,-0.19 -0.98,-0.19c-0.986,0 -1.886,0.173 -2.7,0.52c-0.36,0.16 -0.606,0.273 -0.74,0.34c-0.48,0.213 -0.873,0.38 -1.18,0.5c-0.346,0.133 -0.68,0.25 -1,0.35c-0.32,0.1 -0.533,0.17 -0.64,0.21l0.04,0.76c0,0.2 0.01,0.52 0.03,0.96c0.02,0.44 0.03,0.853 0.03,1.24c0,0.92 -0.066,1.667 -0.2,2.24c-0.053,0.187 -0.113,0.32 -0.18,0.4c-0.066,0.08 -0.193,0.12 -0.38,0.12c-0.12,0 -0.233,-0.04 -0.34,-0.12c-0.106,-0.08 -0.16,-0.18 -0.16,-0.3c0,-0.04 0.06,-0.267 0.18,-0.68c0.12,-0.413 0.18,-0.78 0.18,-1.1c0,-1.04 -0.046,-2.367 -0.14,-3.98l-0.06,-0.92c-0.08,-0.88 -0.12,-1.573 -0.12,-2.08c0,-0.387 0.027,-0.877 0.08,-1.47c0.054,-0.593 0.094,-0.983 0.12,-1.17c-0.506,0.133 -1.153,0.373 -1.94,0.72c-0.226,0.093 -0.52,0.26 -0.88,0.5c-0.333,0.213 -0.56,0.32 -0.68,0.32c-0.106,0 -0.2,-0.047 -0.28,-0.14c-0.08,-0.093 -0.12,-0.207 -0.12,-0.34c0,-0.253 0.447,-0.58 1.34,-0.98c0.894,-0.4 1.867,-0.753 2.92,-1.06c0.947,-0.28 1.787,-0.487 2.52,-0.62c0.734,-0.133 1.487,-0.2 2.26,-0.2c0.707,0 1.297,0.137 1.77,0.41c0.474,0.273 0.71,0.657 0.71,1.15c0,1.173 -0.64,2.387 -1.92,3.64c0.574,-0.08 1.094,-0.12 1.56,-0.12c0.614,0 1.14,0.127 1.58,0.38c0.44,0.253 0.66,0.68 0.66,1.28Zm-2.82,-4.92c0,-0.32 -0.153,-0.563 -0.46,-0.73c-0.306,-0.167 -0.72,-0.25 -1.24,-0.25c-0.546,0 -1.233,0.063 -2.06,0.19c-0.826,0.127 -1.466,0.263 -1.92,0.41c-0.226,0.907 -0.34,1.667 -0.34,2.28c0,0.867 0.04,1.96 0.12,3.28c0.134,-0.013 0.35,-0.067 0.65,-0.16c0.3,-0.093 0.577,-0.193 0.83,-0.3c1.267,-0.533 2.32,-1.227 3.16,-2.08c0.84,-0.853 1.26,-1.733 1.26,-2.64Z" style="fill:#fff;fill-rule:nonzero;"/>
    <path d="M239.075,19.799c0,0.133 -0.086,0.24 -0.26,0.32c-0.173,0.08 -0.366,0.12 -0.58,0.12c-0.16,0 -0.31,-0.19 -0.45,-0.57c-0.14,-0.38 -0.21,-0.957 -0.21,-1.73c0.014,-1.507 0.037,-3.327 0.07,-5.46c0.034,-2.133 0.064,-3.74 0.09,-4.82c0.014,-0.387 0.084,-0.747 0.21,-1.08c0.127,-0.333 0.35,-0.5 0.67,-0.5c0.107,0 0.177,0.057 0.21,0.17c0.034,0.113 0.05,0.33 0.05,0.65c0,0.013 -0.003,0.057 -0.01,0.13c-0.006,0.073 -0.01,0.203 -0.01,0.39c-0.24,3.507 -0.36,6.927 -0.36,10.26c0,0.427 0.097,0.88 0.29,1.36c0.194,0.48 0.29,0.733 0.29,0.76Z" style="fill:#fff;fill-rule:nonzero;"/>
    <path d="M249.475,19.999c0,0.213 -0.06,0.38 -0.18,0.5c-0.12,0.12 -0.286,0.18 -0.5,0.18c-0.266,0 -0.51,-0.28 -0.73,-0.84c-0.22,-0.56 -0.356,-1.14 -0.41,-1.74c-0.053,-0.573 -0.093,-1.733 -0.12,-3.48c-0.013,-0.28 -0.02,-0.563 -0.02,-0.85c0,-0.287 -0.006,-0.53 -0.02,-0.73c-0.386,0.92 -0.913,1.967 -1.58,3.14c-0.666,1.173 -1.336,2.18 -2.01,3.02c-0.673,0.84 -1.223,1.26 -1.65,1.26c-0.44,0 -0.73,-0.233 -0.87,-0.7c-0.14,-0.467 -0.21,-1.207 -0.21,-2.22c0,-0.947 0.124,-2.02 0.37,-3.22c0.247,-1.2 0.53,-2.113 0.85,-2.74c0.134,-0.28 0.247,-0.47 0.34,-0.57c0.094,-0.1 0.2,-0.15 0.32,-0.15c0.334,0 0.5,0.067 0.5,0.2c0,0.067 -0.066,0.22 -0.2,0.46c-0.36,0.667 -0.673,1.467 -0.94,2.4c-0.266,0.933 -0.4,2.187 -0.4,3.76c0,1.053 0.147,1.58 0.44,1.58c0.347,0 0.817,-0.383 1.41,-1.15c0.594,-0.767 1.184,-1.683 1.77,-2.75c0.587,-1.067 1.034,-1.993 1.34,-2.78c0.107,-0.267 0.227,-0.68 0.36,-1.24c0.04,-0.227 0.08,-0.39 0.12,-0.49c0.04,-0.1 0.087,-0.15 0.14,-0.15c0.147,0 0.307,0.06 0.48,0.18c0.174,0.12 0.26,0.247 0.26,0.38c0,0.64 0.024,1.737 0.07,3.29c0.047,1.553 0.104,2.63 0.17,3.23c0.054,0.52 0.15,0.927 0.29,1.22c0.14,0.293 0.277,0.523 0.41,0.69c0.134,0.167 0.2,0.27 0.2,0.31Z" style="fill:#fff;fill-rule:nonzero;"/>
    <path d="M258.675,15.239c0.094,0 0.14,0.1 0.14,0.3c0,0.24 -0.176,0.767 -0.53,1.58c-0.353,0.813 -0.886,1.567 -1.6,2.26c-0.713,0.693 -1.59,1.04 -2.63,1.04c-0.853,0 -1.566,-0.267 -2.14,-0.8c-0.573,-0.533 -0.86,-1.353 -0.86,-2.46c0,-1.04 0.24,-2.07 0.72,-3.09c0.48,-1.02 1.107,-1.853 1.88,-2.5c0.774,-0.647 1.574,-0.97 2.4,-0.97c0.494,0 0.91,0.11 1.25,0.33c0.34,0.22 0.51,0.537 0.51,0.95c0,0.467 -0.263,0.92 -0.79,1.36c-0.526,0.44 -1.21,0.827 -2.05,1.16c-0.84,0.333 -1.706,0.573 -2.6,0.72c-0.16,0.613 -0.24,1.213 -0.24,1.8c0,0.773 0.184,1.373 0.55,1.8c0.367,0.427 0.89,0.64 1.57,0.64c1.027,0 1.86,-0.367 2.5,-1.1c0.64,-0.733 1.174,-1.56 1.6,-2.48c0.027,-0.053 0.074,-0.157 0.14,-0.31c0.067,-0.153 0.127,-0.23 0.18,-0.23Zm-1.76,-3.14c0,-0.213 -0.11,-0.38 -0.33,-0.5c-0.22,-0.12 -0.476,-0.18 -0.77,-0.18c-0.506,0 -0.993,0.167 -1.46,0.5c-0.466,0.333 -0.856,0.733 -1.17,1.2c-0.313,0.467 -0.516,0.88 -0.61,1.24c0.614,-0.067 1.26,-0.24 1.94,-0.52c0.68,-0.28 1.25,-0.587 1.71,-0.92c0.46,-0.333 0.69,-0.607 0.69,-0.82Z" style="fill:#fff;fill-rule:nonzero;"/>
    <path d="M269.255,15.539c0,0.947 -0.613,1.68 -1.84,2.2c-1.226,0.52 -2.826,0.853 -4.8,1c-0.026,0.907 -0.04,1.647 -0.04,2.22c0,0.76 0.034,1.453 0.1,2.08c0.027,0.24 0.04,0.407 0.04,0.5c0,0.213 -0.046,0.397 -0.14,0.55c-0.093,0.153 -0.226,0.23 -0.4,0.23c-0.24,0 -0.373,-0.087 -0.4,-0.26c-0.013,-0.227 -0.03,-0.577 -0.05,-1.05c-0.02,-0.473 -0.03,-0.95 -0.03,-1.43l0.02,-2.8c-0.066,0 -0.19,0.007 -0.37,0.02c-0.18,0.013 -0.356,0.02 -0.53,0.02c-0.32,0 -0.48,-0.22 -0.48,-0.66c0,-0.32 0.08,-0.48 0.24,-0.48c0.054,0 0.214,0.04 0.48,0.12c0.267,0.08 0.494,0.12 0.68,0.12l-0.02,-5.66c-0.106,-0.013 -0.326,-0.037 -0.66,-0.07c-0.333,-0.033 -0.576,-0.097 -0.73,-0.19c-0.153,-0.093 -0.23,-0.227 -0.23,-0.4c0,-0.347 0.067,-0.52 0.2,-0.52c0.147,0 0.327,0.053 0.54,0.16c0.027,0.013 0.107,0.05 0.24,0.11c0.134,0.06 0.32,0.103 0.56,0.13c0.08,-0.213 0.157,-0.36 0.23,-0.44c0.074,-0.08 0.217,-0.12 0.43,-0.12c0.267,0 0.4,0.053 0.4,0.16c0,0.04 -0.02,0.11 -0.06,0.21c-0.04,0.1 -0.06,0.197 -0.06,0.29c0.827,0.12 1.764,0.363 2.81,0.73c1.047,0.367 1.954,0.83 2.72,1.39c0.767,0.56 1.15,1.173 1.15,1.84Zm-0.86,0.08c0,-0.56 -0.32,-1.067 -0.96,-1.52c-0.64,-0.453 -1.41,-0.827 -2.31,-1.12c-0.9,-0.293 -1.763,-0.507 -2.59,-0.64c0.027,0.773 0.047,1.797 0.06,3.07c0.014,1.273 0.02,2.117 0.02,2.53c0.8,0 1.654,-0.103 2.56,-0.31c0.907,-0.207 1.67,-0.487 2.29,-0.84c0.62,-0.353 0.93,-0.743 0.93,-1.17Z" style="fill:#fff;fill-rule:nonzero;"/>
    <path d="M277.675,11.919c0,0.12 -0.083,0.257 -0.25,0.41c-0.166,0.153 -0.31,0.23 -0.43,0.23c-0.093,0 -0.183,-0.04 -0.27,-0.12c-0.086,-0.08 -0.183,-0.193 -0.29,-0.34c-0.093,-0.133 -0.216,-0.247 -0.37,-0.34c-0.153,-0.093 -0.31,-0.14 -0.47,-0.14c-0.386,0 -0.906,0.51 -1.56,1.53c-0.653,1.02 -1.293,2.303 -1.92,3.85c0.014,0.307 0.037,0.693 0.07,1.16c0.034,0.467 0.057,0.813 0.07,1.04l0.06,0.8c0,0.187 -0.04,0.35 -0.12,0.49c-0.08,0.14 -0.226,0.21 -0.44,0.21c-0.226,0 -0.373,-0.303 -0.44,-0.91c-0.066,-0.607 -0.106,-1.49 -0.12,-2.65c-0.013,-0.293 -0.023,-0.713 -0.03,-1.26c-0.006,-0.547 -0.023,-1.2 -0.05,-1.96c-0.04,-1.147 -0.06,-1.967 -0.06,-2.46c0,-0.307 0.187,-0.46 0.56,-0.46c0.227,0 0.364,0.097 0.41,0.29c0.047,0.193 0.07,0.563 0.07,1.11l0,3.18c0.4,-1.027 0.834,-1.913 1.3,-2.66c0.467,-0.747 0.924,-1.317 1.37,-1.71c0.447,-0.393 0.844,-0.59 1.19,-0.59c0.294,0 0.574,0.067 0.84,0.2c0.267,0.133 0.48,0.303 0.64,0.51c0.16,0.207 0.24,0.403 0.24,0.59Z" style="fill:#fff;fill-rule:nonzero;"/>
    <path d="M280.415,7.819c0,0.2 -0.22,0.3 -0.66,0.3c-0.226,0 -0.456,-0.093 -0.69,-0.28c-0.233,-0.187 -0.35,-0.34 -0.35,-0.46c0,-0.147 0.07,-0.287 0.21,-0.42c0.14,-0.133 0.284,-0.2 0.43,-0.2c0,0 0.05,0.017 0.15,0.05c0.1,0.033 0.217,0.123 0.35,0.27c0.107,0.107 0.227,0.247 0.36,0.42c0.134,0.173 0.2,0.28 0.2,0.32Zm0.5,12.58c0,0.133 -0.056,0.237 -0.17,0.31c-0.113,0.073 -0.243,0.103 -0.39,0.09c-0.186,-0.013 -0.323,-0.313 -0.41,-0.9c-0.086,-0.587 -0.176,-1.7 -0.27,-3.34c-0.053,-1.08 -0.1,-2.137 -0.14,-3.17c-0.04,-1.033 -0.066,-1.83 -0.08,-2.39c0,-0.147 0.024,-0.257 0.07,-0.33c0.047,-0.073 0.137,-0.11 0.27,-0.11c0.307,0 0.5,0.127 0.58,0.38c0.08,0.253 0.12,0.74 0.12,1.46l-0.02,2.36c0,1.347 0.04,2.427 0.12,3.24c0,0.04 0.06,0.467 0.18,1.28c0.094,0.56 0.14,0.933 0.14,1.12Z" style="fill:#fff;fill-rule:nonzero;"/>
    <path d="M290.315,20.479c0,0.16 -0.066,0.297 -0.2,0.41c-0.133,0.113 -0.293,0.17 -0.48,0.17c-0.133,0 -0.246,-0.03 -0.34,-0.09c-0.093,-0.06 -0.14,-0.143 -0.14,-0.25c0,-0.547 0.04,-1.393 0.12,-2.54c0.08,-1.227 0.12,-2.247 0.12,-3.06c0,-0.787 -0.023,-1.43 -0.07,-1.93c-0.046,-0.5 -0.156,-0.75 -0.33,-0.75c-0.453,0 -0.95,0.563 -1.49,1.69c-0.54,1.127 -1.156,2.61 -1.85,4.45l-0.3,0.8c-0.053,0.133 -0.143,0.24 -0.27,0.32c-0.126,0.08 -0.256,0.12 -0.39,0.12c-0.16,0 -0.266,-0.013 -0.32,-0.04c-0.053,-0.027 -0.086,-0.107 -0.1,-0.24l-0.16,-1.64l-0.3,-2.88c-0.093,-1.147 -0.206,-2.147 -0.34,-3c-0.04,-0.2 -0.06,-0.353 -0.06,-0.46c0,-0.2 0.087,-0.363 0.26,-0.49c0.174,-0.127 0.374,-0.19 0.6,-0.19c0.134,0 0.23,0.32 0.29,0.96c0.06,0.64 0.124,1.673 0.19,3.1l0.08,1.06c0.107,1.347 0.167,2.2 0.18,2.56c0.04,-0.08 0.077,-0.17 0.11,-0.27c0.034,-0.1 0.077,-0.21 0.13,-0.33c0.72,-1.867 1.397,-3.423 2.03,-4.67c0.634,-1.247 1.244,-1.87 1.83,-1.87c0.414,0 0.697,0.35 0.85,1.05c0.154,0.7 0.25,1.597 0.29,2.69c0.04,1.213 0.06,2.987 0.06,5.32Z" style="fill:#fff;fill-rule:nonzero;"/>
    <path d="M301.515,12.059c0,0.227 -0.096,0.4 -0.29,0.52c-0.193,0.12 -0.543,0.213 -1.05,0.28c-1.226,0.213 -1.913,0.333 -2.06,0.36l-1.3,0.22c0,0.693 0.01,1.42 0.03,2.18c0.02,0.76 0.05,1.427 0.09,2c0.054,0.773 0.147,1.367 0.28,1.78c0.134,0.413 0.207,0.647 0.22,0.7c0,0.133 -0.083,0.257 -0.25,0.37c-0.166,0.113 -0.323,0.17 -0.47,0.17c-0.08,0 -0.146,-0.023 -0.2,-0.07c-0.053,-0.047 -0.1,-0.123 -0.14,-0.23c-0.08,-0.187 -0.156,-0.533 -0.23,-1.04c-0.073,-0.507 -0.13,-1.067 -0.17,-1.68c-0.04,-0.547 -0.07,-1.183 -0.09,-1.91c-0.02,-0.727 -0.03,-1.43 -0.03,-2.11c-0.746,0.12 -1.513,0.267 -2.3,0.44c-0.706,0.147 -1.126,0.22 -1.26,0.22c-0.16,0 -0.31,-0.047 -0.45,-0.14c-0.14,-0.093 -0.21,-0.22 -0.21,-0.38c0,-0.173 0.06,-0.287 0.18,-0.34c0.12,-0.053 0.32,-0.08 0.6,-0.08c0.2,0 0.494,-0.037 0.88,-0.11c0.387,-0.073 0.634,-0.123 0.74,-0.15c0.894,-0.173 1.5,-0.287 1.82,-0.34c0,-0.28 -0.013,-0.647 -0.04,-1.1c-0.026,-0.613 -0.04,-1.08 -0.04,-1.4c0,-0.52 0.017,-0.923 0.05,-1.21c0.034,-0.287 0.097,-0.543 0.19,-0.77c0.107,-0.267 0.307,-0.4 0.6,-0.4c0.12,0 0.2,0.02 0.24,0.06c0.04,0.04 0.06,0.113 0.06,0.22c0,0.08 -0.033,0.313 -0.1,0.7c-0.066,0.387 -0.1,0.9 -0.1,1.54c0,0.493 0.014,1.047 0.04,1.66l0.02,0.54c0.6,-0.093 1.787,-0.34 3.56,-0.74c0.107,-0.027 0.197,-0.12 0.27,-0.28c0.074,-0.16 0.15,-0.24 0.23,-0.24c0.147,0 0.297,0.083 0.45,0.25c0.154,0.167 0.23,0.337 0.23,0.51Z" style="fill:#fff;fill-rule:nonzero;"/>
    <path d="M314.335,15.939c0,0.08 -0.136,0.327 -0.41,0.74c-0.273,0.413 -0.55,0.787 -0.83,1.12c-0.693,0.84 -1.316,1.487 -1.87,1.94c-0.553,0.453 -1.13,0.68 -1.73,0.68c-0.506,0 -0.923,-0.22 -1.25,-0.66c-0.326,-0.44 -0.49,-0.947 -0.49,-1.52c0,-0.853 0.227,-1.933 0.68,-3.24c0.454,-1.307 1.027,-2.44 1.72,-3.4c0.694,-0.96 1.387,-1.44 2.08,-1.44c0.294,0 0.547,0.107 0.76,0.32c0.12,0.12 0.234,0.28 0.34,0.48c0.107,0.2 0.16,0.38 0.16,0.54c0,0.227 -0.03,0.49 -0.09,0.79c-0.06,0.3 -0.123,0.45 -0.19,0.45c-0.133,0 -0.22,-0.073 -0.26,-0.22c-0.04,-0.147 -0.066,-0.333 -0.08,-0.56c-0.04,-0.347 -0.08,-0.577 -0.12,-0.69c-0.04,-0.113 -0.1,-0.17 -0.18,-0.17c-0.626,0 -1.233,0.437 -1.82,1.31c-0.586,0.873 -1.066,1.887 -1.44,3.04c-0.373,1.153 -0.56,2.043 -0.56,2.67c0,0.88 0.294,1.32 0.88,1.32c0.427,0 0.817,-0.107 1.17,-0.32c0.354,-0.213 0.724,-0.513 1.11,-0.9c0.72,-0.733 1.28,-1.367 1.68,-1.9c0.027,-0.04 0.104,-0.143 0.23,-0.31c0.127,-0.167 0.217,-0.25 0.27,-0.25c0.16,0 0.24,0.06 0.24,0.18Z" style="fill:#fff;fill-rule:nonzero;"/>
    <path d="M322.635,16.199c0,0.52 -0.193,1.12 -0.58,1.8c-0.386,0.68 -0.933,1.263 -1.64,1.75c-0.706,0.487 -1.513,0.73 -2.42,0.73c-0.893,0 -1.553,-0.247 -1.98,-0.74c-0.426,-0.493 -0.64,-1.107 -0.64,-1.84c0,-0.64 0.117,-1.433 0.35,-2.38c0.234,-0.947 0.564,-1.793 0.99,-2.54c0.027,-0.053 0.137,-0.25 0.33,-0.59c0.194,-0.34 0.41,-0.6 0.65,-0.78c0.24,-0.18 0.494,-0.27 0.76,-0.27c0.12,0 0.23,0.03 0.33,0.09c0.1,0.06 0.15,0.137 0.15,0.23c0,0.027 -0.036,0.09 -0.11,0.19c-0.073,0.1 -0.13,0.177 -0.17,0.23c-0.453,0.547 -0.82,1.087 -1.1,1.62c-0.373,0.68 -0.663,1.353 -0.87,2.02c-0.206,0.667 -0.31,1.393 -0.31,2.18c0,1.053 0.64,1.58 1.92,1.58c0.6,0 1.157,-0.173 1.67,-0.52c0.514,-0.347 0.924,-0.77 1.23,-1.27c0.307,-0.5 0.46,-0.957 0.46,-1.37c0,-0.467 -0.153,-0.873 -0.46,-1.22c-0.306,-0.347 -0.726,-0.713 -1.26,-1.1c-0.346,-0.253 -0.6,-0.46 -0.76,-0.62c-0.16,-0.16 -0.24,-0.293 -0.24,-0.4c0,-0.16 0.114,-0.29 0.34,-0.39c0.227,-0.1 0.494,-0.15 0.8,-0.15c0.174,0 0.287,0.01 0.34,0.03c0.054,0.02 0.08,0.057 0.08,0.11c0,0.027 -0.023,0.07 -0.07,0.13c-0.046,0.06 -0.07,0.11 -0.07,0.15c0,0.04 0.134,0.173 0.4,0.4c0.534,0.44 0.98,0.887 1.34,1.34c0.36,0.453 0.54,0.987 0.54,1.6Z" style="fill:#fff;fill-rule:nonzero;"/>
    <path d="M331.415,6.659c0,0.267 -0.013,0.79 -0.04,1.57c-0.026,0.78 -0.04,1.563 -0.04,2.35c0,1.52 0.034,3.07 0.1,4.65c0.067,1.58 0.12,2.617 0.16,3.11c0,0.08 0.007,0.167 0.02,0.26c0.014,0.093 0.027,0.18 0.04,0.26c0.054,0.373 0.08,0.6 0.08,0.68c0,0.133 -0.096,0.26 -0.29,0.38c-0.193,0.12 -0.343,0.18 -0.45,0.18c-0.146,0 -0.243,-0.057 -0.29,-0.17c-0.046,-0.113 -0.07,-0.27 -0.07,-0.47c0,-0.733 0.02,-1.5 0.06,-2.3l0.02,-1.12c0,-0.373 -0.006,-0.863 -0.02,-1.47c-0.013,-0.607 -0.033,-1.117 -0.06,-1.53c-0.68,2.187 -1.45,3.997 -2.31,5.43c-0.86,1.433 -1.79,2.15 -2.79,2.15c-0.453,0 -0.836,-0.213 -1.15,-0.64c-0.313,-0.427 -0.47,-1.04 -0.47,-1.84c0,-1.053 0.357,-2.2 1.07,-3.44c0.714,-1.24 1.527,-2.307 2.44,-3.2c0.914,-0.893 1.59,-1.34 2.03,-1.34c0.427,0 0.64,0.14 0.64,0.42c0,0.187 -0.063,0.403 -0.19,0.65c-0.126,0.247 -0.266,0.47 -0.42,0.67c-0.153,0.2 -0.243,0.3 -0.27,0.3c-0.026,0 -0.056,-0.01 -0.09,-0.03c-0.033,-0.02 -0.05,-0.043 -0.05,-0.07c0,-0.067 0.034,-0.18 0.1,-0.34c0.067,-0.16 0.1,-0.267 0.1,-0.32c0,-0.067 -0.006,-0.113 -0.02,-0.14c-0.013,-0.027 -0.053,-0.04 -0.12,-0.04c-0.28,0 -0.783,0.383 -1.51,1.15c-0.726,0.767 -1.376,1.677 -1.95,2.73c-0.573,1.053 -0.86,2.033 -0.86,2.94c0,0.32 0.067,0.62 0.2,0.9c0.134,0.28 0.354,0.42 0.66,0.42c0.974,0 1.877,-0.823 2.71,-2.47c0.834,-1.647 1.557,-3.517 2.17,-5.61l-0.04,-1.68c-0.04,-1.48 -0.06,-2.267 -0.06,-2.36c0,-0.8 0.034,-1.373 0.1,-1.72c0.027,-0.133 0.057,-0.227 0.09,-0.28c0.034,-0.053 0.104,-0.08 0.21,-0.08c0.134,0 0.267,0.043 0.4,0.13c0.134,0.087 0.2,0.203 0.2,0.35l-0.04,0.98Z" style="fill:#fff;fill-rule:nonzero;"/>
    <path d="M341.315,15.239c0.094,0 0.14,0.1 0.14,0.3c0,0.24 -0.176,0.767 -0.53,1.58c-0.353,0.813 -0.886,1.567 -1.6,2.26c-0.713,0.693 -1.59,1.04 -2.63,1.04c-0.853,0 -1.566,-0.267 -2.14,-0.8c-0.573,-0.533 -0.86,-1.353 -0.86,-2.46c0,-1.04 0.24,-2.07 0.72,-3.09c0.48,-1.02 1.107,-1.853 1.88,-2.5c0.774,-0.647 1.574,-0.97 2.4,-0.97c0.494,0 0.91,0.11 1.25,0.33c0.34,0.22 0.51,0.537 0.51,0.95c0,0.467 -0.263,0.92 -0.79,1.36c-0.526,0.44 -1.21,0.827 -2.05,1.16c-0.84,0.333 -1.706,0.573 -2.6,0.72c-0.16,0.613 -0.24,1.213 -0.24,1.8c0,0.773 0.184,1.373 0.55,1.8c0.367,0.427 0.89,0.64 1.57,0.64c1.027,0 1.86,-0.367 2.5,-1.1c0.64,-0.733 1.174,-1.56 1.6,-2.48c0.027,-0.053 0.074,-0.157 0.14,-0.31c0.067,-0.153 0.127,-0.23 0.18,-0.23Zm-1.76,-3.14c0,-0.213 -0.11,-0.38 -0.33,-0.5c-0.22,-0.12 -0.476,-0.18 -0.77,-0.18c-0.506,0 -0.993,0.167 -1.46,0.5c-0.466,0.333 -0.856,0.733 -1.17,1.2c-0.313,0.467 -0.516,0.88 -0.61,1.24c0.614,-0.067 1.26,-0.24 1.94,-0.52c0.68,-0.28 1.25,-0.587 1.71,-0.92c0.46,-0.333 0.69,-0.607 0.69,-0.82Z" style="fill:#fff;fill-rule:nonzero;"/>
    <path d="M357.495,20.619c0,0.16 -0.053,0.297 -0.16,0.41c-0.106,0.113 -0.246,0.17 -0.42,0.17c-0.133,0 -0.246,-0.03 -0.34,-0.09c-0.093,-0.06 -0.14,-0.143 -0.14,-0.25l0.04,-1.38c0.067,-1.64 0.1,-2.98 0.1,-4.02c0,-1.52 -0.106,-2.583 -0.32,-3.19c-0.213,-0.607 -0.46,-0.91 -0.74,-0.91c-0.626,0 -1.413,0.97 -2.36,2.91c-0.946,1.94 -1.86,4.057 -2.74,6.35c-0.066,0.187 -0.156,0.367 -0.27,0.54c-0.113,0.173 -0.23,0.26 -0.35,0.26c-0.293,0 -0.44,-0.093 -0.44,-0.28c0,-0.813 -0.033,-2.337 -0.1,-4.57c-0.066,-2.233 -0.12,-3.703 -0.16,-4.41c-0.12,-2.387 -0.233,-3.86 -0.34,-4.42c-0.106,-0.56 -0.16,-0.86 -0.16,-0.9c0,-0.133 0.074,-0.233 0.22,-0.3c0.147,-0.067 0.334,-0.1 0.56,-0.1c0.187,0 0.324,0.423 0.41,1.27c0.087,0.847 0.15,1.93 0.19,3.25l0.02,0.56c0.027,0.413 0.047,1.597 0.06,3.55c0.014,1.953 0.02,3.39 0.02,4.31c0.614,-1.533 1.19,-2.9 1.73,-4.1c0.54,-1.2 1.164,-2.323 1.87,-3.37c0.707,-1.047 1.36,-1.57 1.96,-1.57c0.507,0 0.934,0.423 1.28,1.27c0.347,0.847 0.52,2.11 0.52,3.79c0,0.747 0.014,1.787 0.04,3.12l0.02,2.1Z" style="fill:#fff;fill-rule:nonzero;"/>
    <path d="M367.515,15.239c0.094,0 0.14,0.1 0.14,0.3c0,0.24 -0.176,0.767 -0.53,1.58c-0.353,0.813 -0.886,1.567 -1.6,2.26c-0.713,0.693 -1.59,1.04 -2.63,1.04c-0.853,0 -1.566,-0.267 -2.14,-0.8c-0.573,-0.533 -0.86,-1.353 -0.86,-2.46c0,-1.04 0.24,-2.07 0.72,-3.09c0.48,-1.02 1.107,-1.853 1.88,-2.5c0.774,-0.647 1.574,-0.97 2.4,-0.97c0.494,0 0.91,0.11 1.25,0.33c0.34,0.22 0.51,0.537 0.51,0.95c0,0.467 -0.263,0.92 -0.79,1.36c-0.526,0.44 -1.21,0.827 -2.05,1.16c-0.84,0.333 -1.706,0.573 -2.6,0.72c-0.16,0.613 -0.24,1.213 -0.24,1.8c0,0.773 0.184,1.373 0.55,1.8c0.367,0.427 0.89,0.64 1.57,0.64c1.027,0 1.86,-0.367 2.5,-1.1c0.64,-0.733 1.174,-1.56 1.6,-2.48c0.027,-0.053 0.074,-0.157 0.14,-0.31c0.067,-0.153 0.127,-0.23 0.18,-0.23Zm-1.76,-3.14c0,-0.213 -0.11,-0.38 -0.33,-0.5c-0.22,-0.12 -0.476,-0.18 -0.77,-0.18c-0.506,0 -0.993,0.167 -1.46,0.5c-0.466,0.333 -0.856,0.733 -1.17,1.2c-0.313,0.467 -0.516,0.88 -0.61,1.24c0.614,-0.067 1.26,-0.24 1.94,-0.52c0.68,-0.28 1.25,-0.587 1.71,-0.92c0.46,-0.333 0.69,-0.607 0.69,-0.82Z" style="fill:#fff;fill-rule:nonzero;"/>
    <path d="M376.095,11.919c0,0.12 -0.083,0.257 -0.25,0.41c-0.166,0.153 -0.31,0.23 -0.43,0.23c-0.093,0 -0.183,-0.04 -0.27,-0.12c-0.086,-0.08 -0.183,-0.193 -0.29,-0.34c-0.093,-0.133 -0.216,-0.247 -0.37,-0.34c-0.153,-0.093 -0.31,-0.14 -0.47,-0.14c-0.386,0 -0.906,0.51 -1.56,1.53c-0.653,1.02 -1.293,2.303 -1.92,3.85c0.014,0.307 0.037,0.693 0.07,1.16c0.034,0.467 0.057,0.813 0.07,1.04l0.06,0.8c0,0.187 -0.04,0.35 -0.12,0.49c-0.08,0.14 -0.226,0.21 -0.44,0.21c-0.226,0 -0.373,-0.303 -0.44,-0.91c-0.066,-0.607 -0.106,-1.49 -0.12,-2.65c-0.013,-0.293 -0.023,-0.713 -0.03,-1.26c-0.006,-0.547 -0.023,-1.2 -0.05,-1.96c-0.04,-1.147 -0.06,-1.967 -0.06,-2.46c0,-0.307 0.187,-0.46 0.56,-0.46c0.227,0 0.364,0.097 0.41,0.29c0.047,0.193 0.07,0.563 0.07,1.11l0,3.18c0.4,-1.027 0.834,-1.913 1.3,-2.66c0.467,-0.747 0.924,-1.317 1.37,-1.71c0.447,-0.393 0.844,-0.59 1.19,-0.59c0.294,0 0.574,0.067 0.84,0.2c0.267,0.133 0.48,0.303 0.64,0.51c0.16,0.207 0.24,0.403 0.24,0.59Z" style="fill:#fff;fill-rule:nonzero;"/>
    <path d="M385.075,15.239c0.094,0 0.14,0.1 0.14,0.3c0,0.24 -0.176,0.767 -0.53,1.58c-0.353,0.813 -0.886,1.567 -1.6,2.26c-0.713,0.693 -1.59,1.04 -2.63,1.04c-0.853,0 -1.566,-0.267 -2.14,-0.8c-0.573,-0.533 -0.86,-1.353 -0.86,-2.46c0,-1.04 0.24,-2.07 0.72,-3.09c0.48,-1.02 1.107,-1.853 1.88,-2.5c0.774,-0.647 1.574,-0.97 2.4,-0.97c0.494,0 0.91,0.11 1.25,0.33c0.34,0.22 0.51,0.537 0.51,0.95c0,0.467 -0.263,0.92 -0.79,1.36c-0.526,0.44 -1.21,0.827 -2.05,1.16c-0.84,0.333 -1.706,0.573 -2.6,0.72c-0.16,0.613 -0.24,1.213 -0.24,1.8c0,0.773 0.184,1.373 0.55,1.8c0.367,0.427 0.89,0.64 1.57,0.64c1.027,0 1.86,-0.367 2.5,-1.1c0.64,-0.733 1.174,-1.56 1.6,-2.48c0.027,-0.053 0.074,-0.157 0.14,-0.31c0.067,-0.153 0.127,-0.23 0.18,-0.23Zm-1.76,-3.14c0,-0.213 -0.11,-0.38 -0.33,-0.5c-0.22,-0.12 -0.476,-0.18 -0.77,-0.18c-0.506,0 -0.993,0.167 -1.46,0.5c-0.466,0.333 -0.856,0.733 -1.17,1.2c-0.313,0.467 -0.516,0.88 -0.61,1.24c0.614,-0.067 1.26,-0.24 1.94,-0.52c0.68,-0.28 1.25,-0.587 1.71,-0.92c0.46,-0.333 0.69,-0.607 0.69,-0.82Z" style="fill:#fff;fill-rule:nonzero;"/>
    <path d="M44.683,18.211c-38.045,7.163 -49.929,44.412 -23.518,53.422" style="fill:none;stroke:#fff;stroke-width:1.5px;"/>
    <path d="M16.877,72.98c-0,-0 3.628,-0.421 4.288,-1.347c1.115,-1.564 -2.721,-4.054 -2.721,-4.054" style="fill:none;stroke:#fff;stroke-width:1.5px;"/>
</svg>
